<svg xmlns="http://www.w3.org/2000/svg" viewBox="0 0 512 512" width="512" height="512">
<g transform="translate(243.88,328.99) scale(1.9998)">
<polygon points="74.48,53.00 61.12,59.33 45.87,64.04 29.33,66.93 12.12,67.91 -5.08,66.93 -21.62,64.04 -36.87,59.33 -50.23,53.00 -61.20,45.29 -69.34,36.48 -74.36,26.93 -76.06,17.00 -74.36,7.07 -69.34,-2.48 -61.20,-11.29 -50.23,-19.00 -36.87,-25.33 -21.62,-30.04 -5.08,-32.93 12.12,-33.91 29.33,-32.93 45.87,-30.04 61.12,-25.33 74.48,-19.00 85.44,-11.29 93.59,-2.48 98.61,7.07 100.31,17.00 98.61,26.93 93.59,36.48 85.44,45.29" fill="#000000" opacity="0.4"></polygon>
<polygon points="88.18,-26.00 86.49,-16.07 81.47,-6.52 73.32,2.29 62.35,10.00 48.99,16.33 33.75,21.04 17.20,23.93 0.00,24.91 0.00,50.91 17.20,49.93 33.75,47.04 48.99,42.33 62.35,36.00 73.32,28.29 81.47,19.48 86.49,9.93 88.18,-0.00" fill="#A0AAB4" stroke="#24282B" stroke-width="2.000" stroke-linejoin="round" stroke-miterlimit="10"></polygon>
<polygon points="0.00,24.91 -17.20,23.93 -33.75,21.04 -48.99,16.33 -62.35,10.00 -73.32,2.29 -81.47,-6.52 -86.49,-16.07 -88.18,-26.00 -88.18,0.00 -86.49,9.93 -81.47,19.48 -73.32,28.29 -62.35,36.00 -48.99,42.33 -33.75,47.04 -17.20,49.93 0.00,50.91" fill="#DCE1E6" stroke="#24282B" stroke-width="2.000" stroke-linejoin="round" stroke-miterlimit="10"></polygon>
<polygon points="62.35,10.00 48.99,16.33 33.75,21.04 17.20,23.93 0.00,24.91 -17.20,23.93 -33.75,21.04 -48.99,16.33 -62.35,10.00 -73.32,2.29 -81.47,-6.52 -86.49,-16.07 -88.18,-26.00 -86.49,-35.93 -81.47,-45.48 -73.32,-54.29 -62.35,-62.00 -48.99,-68.33 -33.75,-73.04 -17.20,-75.93 -0.00,-76.91 17.20,-75.93 33.75,-73.04 48.99,-68.33 62.35,-62.00 73.32,-54.29 81.47,-45.48 86.49,-35.93 88.18,-26.00 86.49,-16.07 81.47,-6.52 73.32,2.29" fill="#F2F4F6" stroke="#24282B" stroke-width="2.000" stroke-linejoin="round" stroke-miterlimit="10"></polygon>
<polygon points="0.00,24.91 -17.20,23.93 0.12,23.93 17.32,24.91" fill="#FFFFFF"></polygon>
<polygon points="-17.20,23.93 -33.75,21.04 -16.43,21.04 0.12,23.93" fill="#FFFFFF"></polygon>
<polygon points="-33.75,21.04 -48.99,16.33 -31.67,16.33 -16.43,21.04" fill="#FFFFFF"></polygon>
<polygon points="-48.99,16.33 -62.35,10.00 -45.03,10.00 -31.67,16.33" fill="#FFFFFF"></polygon>
<polygon points="-62.35,10.00 -73.32,2.29 -56.00,2.29 -45.03,10.00" fill="#FFFFFF"></polygon>
<polygon points="-73.32,2.29 -81.47,-6.52 -64.15,-6.52 -56.00,2.29" fill="#FFFFFF"></polygon>
<polygon points="-81.47,-6.52 -86.49,-16.07 -69.17,-16.07 -64.15,-6.52" fill="#FFFFFF"></polygon>
<polygon points="-86.49,-16.07 -88.18,-26.00 -70.86,-26.00 -69.17,-16.07" fill="#FFFFFF"></polygon>
<polygon points="-88.18,-26.00 -86.49,-35.93 -69.17,-35.93 -70.86,-26.00" fill="#FFFFFF"></polygon>
<polygon points="-86.49,-35.93 -81.47,-45.48 -64.15,-45.48 -69.17,-35.93" fill="#FFFFFF"></polygon>
<polygon points="-81.47,-45.48 -73.32,-54.29 -56.00,-54.29 -64.15,-45.48" fill="#FFFFFF"></polygon>
<polygon points="-73.32,-54.29 -62.35,-62.00 -45.03,-62.00 -56.00,-54.29" fill="#FFFFFF"></polygon>
<polygon points="-62.35,-62.00 -48.99,-68.33 -31.67,-68.33 -45.03,-62.00" fill="#FFFFFF"></polygon>
<polygon points="-48.99,-68.33 -33.75,-73.04 -16.43,-73.04 -31.67,-68.33" fill="#FFFFFF"></polygon>
<polygon points="-33.75,-73.04 -17.20,-75.93 0.12,-75.93 -16.43,-73.04" fill="#FFFFFF"></polygon>
<polygon points="-17.20,-75.93 -0.00,-76.91 17.32,-76.91 0.12,-75.93" fill="#FFFFFF"></polygon>
<polygon points="62.35,10.00 48.99,16.33 33.75,21.04 17.20,23.93 0.00,24.91 -17.20,23.93 -33.75,21.04 -48.99,16.33 -62.35,10.00 -73.32,2.29 -81.47,-6.52 -86.49,-16.07 -88.18,-26.00 -86.49,-35.93 -81.47,-45.48 -73.32,-54.29 -62.35,-62.00 -48.99,-68.33 -33.75,-73.04 -17.20,-75.93 -0.00,-76.91 17.20,-75.93 33.75,-73.04 48.99,-68.33 62.35,-62.00 73.32,-54.29 81.47,-45.48 86.49,-35.93 88.18,-26.00 86.49,-16.07 81.47,-6.52 73.32,2.29" fill="none" stroke="#24282B" stroke-width="2.000" stroke-linejoin="round" stroke-miterlimit="10"></polygon>
<polygon points="88.18,-56.00 86.49,-46.07 81.47,-36.52 73.32,-27.71 62.35,-20.00 48.99,-13.67 33.75,-8.96 17.20,-6.07 0.00,-5.09 0.00,20.91 17.20,19.93 33.75,17.04 48.99,12.33 62.35,6.00 73.32,-1.71 81.47,-10.52 86.49,-20.07 88.18,-30.00" fill="#A0AAB4" stroke="#24282B" stroke-width="2.000" stroke-linejoin="round" stroke-miterlimit="10"></polygon>
<polygon points="0.00,-5.09 -17.20,-6.07 -33.75,-8.96 -48.99,-13.67 -62.35,-20.00 -73.32,-27.71 -81.47,-36.52 -86.49,-46.07 -88.18,-56.00 -88.18,-30.00 -86.49,-20.07 -81.47,-10.52 -73.32,-1.71 -62.35,6.00 -48.99,12.33 -33.75,17.04 -17.20,19.93 0.00,20.91" fill="#DCE1E6" stroke="#24282B" stroke-width="2.000" stroke-linejoin="round" stroke-miterlimit="10"></polygon>
<polygon points="62.35,-20.00 48.99,-13.67 33.75,-8.96 17.20,-6.07 0.00,-5.09 -17.20,-6.07 -33.75,-8.96 -48.99,-13.67 -62.35,-20.00 -73.32,-27.71 -81.47,-36.52 -86.49,-46.07 -88.18,-56.00 -86.49,-65.93 -81.47,-75.48 -73.32,-84.29 -62.35,-92.00 -48.99,-98.33 -33.75,-103.04 -17.20,-105.93 -0.00,-106.91 17.20,-105.93 33.75,-103.04 48.99,-98.33 62.35,-92.00 73.32,-84.29 81.47,-75.48 86.49,-65.93 88.18,-56.00 86.49,-46.07 81.47,-36.52 73.32,-27.71" fill="#F2F4F6" stroke="#24282B" stroke-width="2.000" stroke-linejoin="round" stroke-miterlimit="10"></polygon>
<polygon points="0.00,-5.09 -17.20,-6.07 0.12,-6.07 17.32,-5.09" fill="#FFFFFF"></polygon>
<polygon points="-17.20,-6.07 -33.75,-8.96 -16.43,-8.96 0.12,-6.07" fill="#FFFFFF"></polygon>
<polygon points="-33.75,-8.96 -48.99,-13.67 -31.67,-13.67 -16.43,-8.96" fill="#FFFFFF"></polygon>
<polygon points="-48.99,-13.67 -62.35,-20.00 -45.03,-20.00 -31.67,-13.67" fill="#FFFFFF"></polygon>
<polygon points="-62.35,-20.00 -73.32,-27.71 -56.00,-27.71 -45.03,-20.00" fill="#FFFFFF"></polygon>
<polygon points="-73.32,-27.71 -81.47,-36.52 -64.15,-36.52 -56.00,-27.71" fill="#FFFFFF"></polygon>
<polygon points="-81.47,-36.52 -86.49,-46.07 -69.17,-46.07 -64.15,-36.52" fill="#FFFFFF"></polygon>
<polygon points="-86.49,-46.07 -88.18,-56.00 -70.86,-56.00 -69.17,-46.07" fill="#FFFFFF"></polygon>
<polygon points="-88.18,-56.00 -86.49,-65.93 -69.17,-65.93 -70.86,-56.00" fill="#FFFFFF"></polygon>
<polygon points="-86.49,-65.93 -81.47,-75.48 -64.15,-75.48 -69.17,-65.93" fill="#FFFFFF"></polygon>
<polygon points="-81.47,-75.48 -73.32,-84.29 -56.00,-84.29 -64.15,-75.48" fill="#FFFFFF"></polygon>
<polygon points="-73.32,-84.29 -62.35,-92.00 -45.03,-92.00 -56.00,-84.29" fill="#FFFFFF"></polygon>
<polygon points="-62.35,-92.00 -48.99,-98.33 -31.67,-98.33 -45.03,-92.00" fill="#FFFFFF"></polygon>
<polygon points="-48.99,-98.33 -33.75,-103.04 -16.43,-103.04 -31.67,-98.33" fill="#FFFFFF"></polygon>
<polygon points="-33.75,-103.04 -17.20,-105.93 0.12,-105.93 -16.43,-103.04" fill="#FFFFFF"></polygon>
<polygon points="-17.20,-105.93 -0.00,-106.91 17.32,-106.91 0.12,-105.93" fill="#FFFFFF"></polygon>
<polygon points="62.35,-20.00 48.99,-13.67 33.75,-8.96 17.20,-6.07 0.00,-5.09 -17.20,-6.07 -33.75,-8.96 -48.99,-13.67 -62.35,-20.00 -73.32,-27.71 -81.47,-36.52 -86.49,-46.07 -88.18,-56.00 -86.49,-65.93 -81.47,-75.48 -73.32,-84.29 -62.35,-92.00 -48.99,-98.33 -33.75,-103.04 -17.20,-105.93 -0.00,-106.91 17.20,-105.93 33.75,-103.04 48.99,-98.33 62.35,-92.00 73.32,-84.29 81.47,-75.48 86.49,-65.93 88.18,-56.00 86.49,-46.07 81.47,-36.52 73.32,-27.71" fill="none" stroke="#24282B" stroke-width="2.000" stroke-linejoin="round" stroke-miterlimit="10"></polygon>
<polygon points="88.18,-86.00 86.49,-76.07 81.47,-66.52 73.32,-57.71 62.35,-50.00 48.99,-43.67 33.75,-38.96 17.20,-36.07 0.00,-35.09 0.00,-9.09 17.20,-10.07 33.75,-12.96 48.99,-17.67 62.35,-24.00 73.32,-31.71 81.47,-40.52 86.49,-50.07 88.18,-60.00" fill="#A0AAB4" stroke="#24282B" stroke-width="2.000" stroke-linejoin="round" stroke-miterlimit="10"></polygon>
<polygon points="0.00,-35.09 -17.20,-36.07 -33.75,-38.96 -48.99,-43.67 -62.35,-50.00 -73.32,-57.71 -81.47,-66.52 -86.49,-76.07 -88.18,-86.00 -88.18,-60.00 -86.49,-50.07 -81.47,-40.52 -73.32,-31.71 -62.35,-24.00 -48.99,-17.67 -33.75,-12.96 -17.20,-10.07 0.00,-9.09" fill="#DCE1E6" stroke="#24282B" stroke-width="2.000" stroke-linejoin="round" stroke-miterlimit="10"></polygon>
<polygon points="62.35,-50.00 48.99,-43.67 33.75,-38.96 17.20,-36.07 0.00,-35.09 -17.20,-36.07 -33.75,-38.96 -48.99,-43.67 -62.35,-50.00 -73.32,-57.71 -81.47,-66.52 -86.49,-76.07 -88.18,-86.00 -86.49,-95.93 -81.47,-105.48 -73.32,-114.29 -62.35,-122.00 -48.99,-128.33 -33.75,-133.04 -17.20,-135.93 -0.00,-136.91 17.20,-135.93 33.75,-133.04 48.99,-128.33 62.35,-122.00 73.32,-114.29 81.47,-105.48 86.49,-95.93 88.18,-86.00 86.49,-76.07 81.47,-66.52 73.32,-57.71" fill="#F2F4F6" stroke="#24282B" stroke-width="2.000" stroke-linejoin="round" stroke-miterlimit="10"></polygon>
<polygon points="0.00,-35.09 -17.20,-36.07 0.12,-36.07 17.32,-35.09" fill="#FFFFFF"></polygon>
<polygon points="-17.20,-36.07 -33.75,-38.96 -16.43,-38.96 0.12,-36.07" fill="#FFFFFF"></polygon>
<polygon points="-33.75,-38.96 -48.99,-43.67 -31.67,-43.67 -16.43,-38.96" fill="#FFFFFF"></polygon>
<polygon points="-48.99,-43.67 -62.35,-50.00 -45.03,-50.00 -31.67,-43.67" fill="#FFFFFF"></polygon>
<polygon points="-62.35,-50.00 -73.32,-57.71 -56.00,-57.71 -45.03,-50.00" fill="#FFFFFF"></polygon>
<polygon points="-73.32,-57.71 -81.47,-66.52 -64.15,-66.52 -56.00,-57.71" fill="#FFFFFF"></polygon>
<polygon points="-81.47,-66.52 -86.49,-76.07 -69.17,-76.07 -64.15,-66.52" fill="#FFFFFF"></polygon>
<polygon points="-86.49,-76.07 -88.18,-86.00 -70.86,-86.00 -69.17,-76.07" fill="#FFFFFF"></polygon>
<polygon points="-88.18,-86.00 -86.49,-95.93 -69.17,-95.93 -70.86,-86.00" fill="#FFFFFF"></polygon>
<polygon points="-86.49,-95.93 -81.47,-105.48 -64.15,-105.48 -69.17,-95.93" fill="#FFFFFF"></polygon>
<polygon points="-81.47,-105.48 -73.32,-114.29 -56.00,-114.29 -64.15,-105.48" fill="#FFFFFF"></polygon>
<polygon points="-73.32,-114.29 -62.35,-122.00 -45.03,-122.00 -56.00,-114.29" fill="#FFFFFF"></polygon>
<polygon points="-62.35,-122.00 -48.99,-128.33 -31.67,-128.33 -45.03,-122.00" fill="#FFFFFF"></polygon>
<polygon points="-48.99,-128.33 -33.75,-133.04 -16.43,-133.04 -31.67,-128.33" fill="#FFFFFF"></polygon>
<polygon points="-33.75,-133.04 -17.20,-135.93 0.12,-135.93 -16.43,-133.04" fill="#FFFFFF"></polygon>
<polygon points="-17.20,-135.93 -0.00,-136.91 17.32,-136.91 0.12,-135.93" fill="#FFFFFF"></polygon>
<polygon points="62.35,-50.00 48.99,-43.67 33.75,-38.96 17.20,-36.07 0.00,-35.09 -17.20,-36.07 -33.75,-38.96 -48.99,-43.67 -62.35,-50.00 -73.32,-57.71 -81.47,-66.52 -86.49,-76.07 -88.18,-86.00 -86.49,-95.93 -81.47,-105.48 -73.32,-114.29 -62.35,-122.00 -48.99,-128.33 -33.75,-133.04 -17.20,-135.93 -0.00,-136.91 17.20,-135.93 33.75,-133.04 48.99,-128.33 62.35,-122.00 73.32,-114.29 81.47,-105.48 86.49,-95.93 88.18,-86.00 86.49,-76.07 81.47,-66.52 73.32,-57.71" fill="none" stroke="#24282B" stroke-width="2.000" stroke-linejoin="round" stroke-miterlimit="10"></polygon>
<polygon points="43.30,-61.60 32.58,-56.66 20.23,-53.23 6.86,-51.47 -6.86,-51.47 -20.23,-53.23 -32.58,-56.66 -43.30,-61.60 -51.85,-67.79 -57.80,-74.92 -60.85,-82.64 -60.85,-90.56 -57.80,-98.28 -51.85,-105.41 -43.30,-111.60 -32.58,-116.54 -20.23,-119.97 -6.86,-121.73 6.86,-121.73 20.23,-119.97 32.58,-116.54 43.30,-111.60 51.85,-105.41 57.80,-98.28 60.85,-90.56 60.85,-82.64 57.80,-74.92 51.85,-67.79" fill="#FAFBFC" stroke="#24282B" stroke-width="2.000" stroke-linejoin="round" stroke-miterlimit="10"></polygon>
<polygon points="17.32,-77.00 12.25,-74.75 6.34,-73.34 0.00,-72.86 -6.34,-73.34 -12.25,-74.75 -17.32,-77.00 -21.21,-79.93 -23.66,-83.34 -24.49,-87.00 -23.66,-90.66 -21.21,-94.07 -17.32,-97.00 -12.25,-99.25 -6.34,-100.66 -0.00,-101.14 6.34,-100.66 12.25,-99.25 17.32,-97.00 21.21,-94.07 23.66,-90.66 24.49,-87.00 23.66,-83.34 21.21,-79.93" fill="#E9EDF1" stroke="#24282B" stroke-width="2.000" stroke-linejoin="round" stroke-miterlimit="10"></polygon>
<polygon points="73.61,-71.50 73.46,-72.88 73.03,-74.33 72.34,-75.77 71.45,-77.08 70.40,-78.18 69.28,-79.00 68.16,-79.48 67.12,-79.58 66.22,-79.30 65.53,-78.67 65.10,-77.71 64.95,-76.50 65.10,-75.12 65.53,-73.67 66.22,-72.23 67.12,-70.92 68.16,-69.82 69.28,-69.00 70.40,-68.52 71.45,-68.42 72.34,-68.70 73.03,-69.33 73.46,-70.29" fill="#12B886"></polygon>
</g>
</svg>