<svg xmlns="http://www.w3.org/2000/svg" viewBox="4.68 3.69 502.63 502.63" width="502.63" height="502.63">
<g transform="translate(256.00,387.31) scale(1.4875)">
<polygon points="55.43,56.00 48.27,58.76 39.84,59.73 31.40,58.76 24.25,56.00 -48.50,14.00 -53.28,9.87 -54.95,5.00 -53.28,0.13 -48.50,-4.00 -24.25,-18.00 -17.10,-20.76 -8.66,-21.73 -0.22,-20.76 6.93,-18.00 79.67,24.00 84.45,28.13 86.13,33.00 84.45,37.87 79.67,42.00" fill="#000000" opacity="0.4"></polygon>
<polygon points="70.54,4.00 68.86,8.87 64.09,13.00 39.84,27.00 32.69,29.76 24.25,30.73 24.25,40.73 32.69,39.76 39.84,37.00 64.09,23.00 68.86,18.87 70.54,14.00" fill="#4A535C" stroke="#24282B" stroke-width="2.689" stroke-linejoin="round" stroke-miterlimit="10"></polygon>
<polygon points="24.25,30.73 15.81,29.76 8.66,27.00 -64.09,-15.00 -68.86,-19.13 -70.54,-24.00 -70.54,-14.00 -68.86,-9.13 -64.09,-5.00 8.66,37.00 15.81,39.76 24.25,40.73" fill="#CBD3DA" stroke="#24282B" stroke-width="2.689" stroke-linejoin="round" stroke-miterlimit="10"></polygon>
<polygon points="39.84,27.00 32.69,29.76 24.25,30.73 15.81,29.76 8.66,27.00 -64.09,-15.00 -68.86,-19.13 -70.54,-24.00 -68.86,-28.87 -64.09,-33.00 -39.84,-47.00 -32.69,-49.76 -24.25,-50.73 -15.81,-49.76 -8.66,-47.00 64.09,-5.00 68.86,-0.87 70.54,4.00 68.86,8.87 64.09,13.00" fill="#E9EDF1" stroke="#24282B" stroke-width="2.689" stroke-linejoin="round" stroke-miterlimit="10"></polygon>
<polygon points="24.25,30.73 15.81,29.76 26.20,29.76 34.64,30.73" fill="#FFFFFF"></polygon>
<polygon points="15.81,29.76 8.66,27.00 19.05,27.00 26.20,29.76" fill="#FFFFFF"></polygon>
<polygon points="8.66,27.00 -64.09,-15.00 -53.69,-15.00 19.05,27.00" fill="#FFFFFF"></polygon>
<polygon points="-64.09,-15.00 -68.86,-19.13 -58.47,-19.13 -53.69,-15.00" fill="#FFFFFF"></polygon>
<polygon points="-68.86,-19.13 -70.54,-24.00 -60.15,-24.00 -58.47,-19.13" fill="#FFFFFF"></polygon>
<polygon points="-70.54,-24.00 -68.86,-28.87 -58.47,-28.87 -60.15,-24.00" fill="#FFFFFF"></polygon>
<polygon points="-68.86,-28.87 -64.09,-33.00 -53.69,-33.00 -58.47,-28.87" fill="#FFFFFF"></polygon>
<polygon points="-64.09,-33.00 -39.84,-47.00 -29.44,-47.00 -53.69,-33.00" fill="#FFFFFF"></polygon>
<polygon points="-39.84,-47.00 -32.69,-49.76 -22.29,-49.76 -29.44,-47.00" fill="#FFFFFF"></polygon>
<polygon points="-32.69,-49.76 -24.25,-50.73 -13.86,-50.73 -22.29,-49.76" fill="#FFFFFF"></polygon>
<polygon points="39.84,27.00 32.69,29.76 24.25,30.73 15.81,29.76 8.66,27.00 -64.09,-15.00 -68.86,-19.13 -70.54,-24.00 -68.86,-28.87 -64.09,-33.00 -39.84,-47.00 -32.69,-49.76 -24.25,-50.73 -15.81,-49.76 -8.66,-47.00 64.09,-5.00 68.86,-0.87 70.54,4.00 68.86,8.87 64.09,13.00" fill="none" stroke="#24282B" stroke-width="2.689" stroke-linejoin="round" stroke-miterlimit="10"></polygon>
<polygon points="21.59,-46.54 19.05,-44.00 10.39,-39.00 6.00,-37.54 6.00,2.46 10.39,1.00 19.05,-4.00 21.59,-6.54" fill="#A0AAB4" stroke="#24282B" stroke-width="2.689" stroke-linejoin="round" stroke-miterlimit="10"></polygon>
<polygon points="6.00,-37.54 0.93,-37.54 -3.46,-39.00 -19.05,-48.00 -21.59,-50.54 -21.59,-10.54 -19.05,-8.00 -3.46,1.00 0.93,2.46 6.00,2.46" fill="#DCE1E6" stroke="#24282B" stroke-width="2.689" stroke-linejoin="round" stroke-miterlimit="10"></polygon>
<polygon points="10.39,-39.00 6.00,-37.54 0.93,-37.54 -3.46,-39.00 -19.05,-48.00 -21.59,-50.54 -21.59,-53.46 -19.05,-56.00 -10.39,-61.00 -6.00,-62.46 -0.93,-62.46 3.46,-61.00 19.05,-52.00 21.59,-49.46 21.59,-46.54 19.05,-44.00" fill="#E9EDF1" stroke="#24282B" stroke-width="2.689" stroke-linejoin="round" stroke-miterlimit="10"></polygon>
<polygon points="100.95,-124.22 98.73,-122.00 96.99,-121.00 93.15,-119.72 88.71,-119.72 88.71,12.28 93.15,12.28 96.99,11.00 98.73,10.00 100.95,7.78" fill="#A0AAB4" stroke="#24282B" stroke-width="2.689" stroke-linejoin="round" stroke-miterlimit="10"></polygon>
<polygon points="88.71,-119.72 84.87,-121.00 -98.73,-227.00 -100.95,-229.22 -100.95,-97.22 -98.73,-95.00 84.87,11.00 88.71,12.28" fill="#DCE1E6" stroke="#24282B" stroke-width="2.689" stroke-linejoin="round" stroke-miterlimit="10"></polygon>
<polygon points="96.99,-121.00 93.15,-119.72 88.71,-119.72 84.87,-121.00 -98.73,-227.00 -100.95,-229.22 -100.95,-231.78 -98.73,-234.00 -96.99,-235.00 -93.15,-236.28 -88.71,-236.28 -84.87,-235.00 98.73,-129.00 100.95,-126.78 100.95,-124.22 98.73,-122.00" fill="#F2F4F6" stroke="#24282B" stroke-width="2.689" stroke-linejoin="round" stroke-miterlimit="10"></polygon>
<polygon points="88.71,-119.72 84.87,-121.00 93.53,-121.00 97.37,-119.72" fill="#FFFFFF"></polygon>
<polygon points="84.87,-121.00 -98.73,-227.00 -90.07,-227.00 93.53,-121.00" fill="#FFFFFF"></polygon>
<polygon points="-98.73,-227.00 -100.95,-229.22 -92.29,-229.22 -90.07,-227.00" fill="#FFFFFF"></polygon>
<polygon points="-100.95,-229.22 -100.95,-231.78 -92.29,-231.78 -92.29,-229.22" fill="#FFFFFF"></polygon>
<polygon points="-100.95,-231.78 -98.73,-234.00 -90.07,-234.00 -92.29,-231.78" fill="#FFFFFF"></polygon>
<polygon points="-98.73,-234.00 -96.99,-235.00 -88.33,-235.00 -90.07,-234.00" fill="#FFFFFF"></polygon>
<polygon points="-96.99,-235.00 -93.15,-236.28 -84.49,-236.28 -88.33,-235.00" fill="#FFFFFF"></polygon>
<polygon points="-93.15,-236.28 -88.71,-236.28 -80.05,-236.28 -84.49,-236.28" fill="#FFFFFF"></polygon>
<polygon points="96.99,-121.00 93.15,-119.72 88.71,-119.72 84.87,-121.00 -98.73,-227.00 -100.95,-229.22 -100.95,-231.78 -98.73,-234.00 -96.99,-235.00 -93.15,-236.28 -88.71,-236.28 -84.87,-235.00 98.73,-129.00 100.95,-126.78 100.95,-124.22 98.73,-122.00" fill="none" stroke="#24282B" stroke-width="2.689" stroke-linejoin="round" stroke-miterlimit="10"></polygon>
<polygon points="-95.70,-102.75 80.97,-0.75 80.97,-112.75 -95.70,-214.75" fill="#FAFBFC" stroke="#24282B" stroke-width="2.689" stroke-linejoin="round" stroke-miterlimit="10"></polygon>
<polygon points="-90.93,-105.50 75.34,-9.50 75.34,-109.50 -90.93,-205.50" fill="#000000"></polygon>
<polygon points="-77.42,-167.30 -28.93,-139.30 -28.93,-153.30 -77.42,-181.30" fill="#4A535C"></polygon>
<polygon points="71.45,-9.25 71.34,-10.22 71.04,-11.23 70.56,-12.24 69.93,-13.16 69.20,-13.93 68.42,-14.50 67.63,-14.83 66.90,-14.91 66.27,-14.71 65.79,-14.27 65.49,-13.60 65.38,-12.75 65.49,-11.78 65.79,-10.77 66.27,-9.76 66.90,-8.84 67.63,-8.07 68.42,-7.50 69.20,-7.17 69.93,-7.09 70.56,-7.29 71.04,-7.73 71.34,-8.40" fill="#00A7E1"></polygon>
</g>
</svg>